<svg viewBox="0 0 100 21" fill="none" xmlns="http://www.w3.org/2000/svg">
    <path fill-rule="evenodd" clip-rule="evenodd" d="M0.140677 20.3119C0.0468925 20.3119 0 20.2648 0 20.1705C0 20.0563 0.0468925 19.9997 0.140677 19.9997C1.08228 19.9045 1.8682 19.8101 2.49937 19.7158C3.13054 19.6205 3.62948 19.4791 3.99618 19.2895C4.36288 19.1008 4.62172 18.8395 4.77365 18.5075C4.92371 18.1764 4.99874 17.7265 4.99874 17.1587V3.06745L0.931285 5.96606V5.6246L6.77878 0H6.97666V17.1587C6.97666 17.7265 7.047 18.1764 7.18768 18.5075C7.3293 18.8395 7.57876 19.1008 7.93608 19.2895C8.29434 19.4791 8.7839 19.6205 9.40569 19.7158C10.0266 19.8101 10.8275 19.9045 11.8057 19.9997C11.9004 19.9997 11.9482 20.0563 11.9482 20.1705C11.9482 20.2648 11.9004 20.3119 11.8057 20.3119H0.140677Z" fill="#7C7262"/>
    <path fill-rule="evenodd" clip-rule="evenodd" d="M15.0797 20.3119C14.9836 20.3119 14.9355 20.2648 14.9355 20.1705C14.9355 20.0563 14.9836 19.9997 15.0797 19.9997C16.0449 19.9045 16.8495 19.8101 17.4974 19.7158C18.1444 19.6205 18.6558 19.4791 19.0316 19.2895C19.4075 19.1008 19.6728 18.8395 19.8285 18.5075C19.9823 18.1764 20.0593 17.7265 20.0593 17.1587V3.06745L15.8901 5.96606V5.6246L21.8838 0H22.0866V17.1587C22.0866 17.7265 22.1587 18.1764 22.3039 18.5075C22.4481 18.8395 22.7038 19.1008 23.07 19.2895C23.4372 19.4791 23.939 19.6205 24.5764 19.7158C25.2137 19.8101 26.0337 19.9045 27.0373 19.9997C27.1334 19.9997 27.1825 20.0563 27.1825 20.1705C27.1825 20.2648 27.1334 20.3119 27.0373 20.3119H15.0797Z" fill="#7C7262"/>
    <path fill-rule="evenodd" clip-rule="evenodd" d="M30.3106 20.3119C30.2168 20.3119 30.1689 20.2648 30.1689 20.1705C30.1689 20.0563 30.2168 19.9997 30.3106 19.9997C31.2521 19.9045 32.0379 19.8101 32.6691 19.7158C33.3002 19.6205 33.7991 19.4791 34.1657 19.2895C34.5324 19.1008 34.7912 18.8395 34.9432 18.5075C35.0932 18.1764 35.1682 17.7265 35.1682 17.1587V3.06745L31.1011 5.96606V5.6246L36.9481 0H37.146V17.1587C37.146 17.7265 37.2163 18.1764 37.3579 18.5075C37.4986 18.8395 37.7481 19.1008 38.1053 19.2895C38.4636 19.4791 38.9531 19.6205 39.5748 19.7158C40.1966 19.8101 40.9965 19.9045 41.9746 19.9997C42.0693 19.9997 42.1172 20.0563 42.1172 20.1705C42.1172 20.2648 42.0693 20.3119 41.9746 20.3119H30.3106Z" fill="#7C7262"/>
    <path fill-rule="evenodd" clip-rule="evenodd" d="M62.171 21.0004L56.6399 4.42521L51.3096 21.0004H51.0803L46.0944 3.56988C45.9603 3.13227 45.8404 2.76665 45.7357 2.47207C45.6301 2.17749 45.5111 1.92932 45.377 1.72946C45.2438 1.5296 45.0915 1.37804 44.9193 1.2729C44.7471 1.16871 44.5273 1.07873 44.2599 1.002C44.1648 0.984005 44.1172 0.926225 44.1172 0.831504C44.1172 0.736783 44.1648 0.688477 44.2599 0.688477H48.7881C48.8833 0.688477 48.9308 0.736783 48.9308 0.831504C48.9308 0.926225 48.8833 0.984005 48.7881 1.002C48.5588 1.04084 48.3476 1.09767 48.1573 1.17345C47.966 1.24922 47.8614 1.42067 47.8423 1.68683C47.8233 1.89617 47.8471 2.17181 47.9137 2.51375C47.9803 2.85569 48.1192 3.38897 48.3295 4.11169L51.8824 16.6925L56.9263 0.688477H57.3279L62.7724 16.6641L66.2121 3.96866C66.3643 3.47422 66.4595 3.08492 66.4985 2.79981C66.5365 2.51375 66.546 2.23906 66.527 1.97194C66.507 1.66884 66.3881 1.43961 66.1692 1.28806C65.9485 1.13556 65.6668 1.04084 65.3234 1.002C65.2273 1.002 65.1797 0.945169 65.1797 0.831504C65.1797 0.736783 65.2187 0.688477 65.2948 0.688477H69.3929C69.4691 0.688477 69.5071 0.736783 69.5071 0.831504C69.5071 0.926225 69.4595 0.984005 69.3634 1.002C69.039 1.05883 68.7716 1.13556 68.5613 1.23028C68.351 1.32595 68.1703 1.46803 68.0171 1.65842C67.8639 1.84881 67.7307 2.09129 67.6155 2.38587C67.5014 2.6814 67.3767 3.0565 67.2435 3.51305L62.3432 21.0004H62.171Z" fill="#7C7262"/>
    <path fill-rule="evenodd" clip-rule="evenodd" d="M73.1826 15.1677C73.1826 15.0729 73.2396 15.0255 73.3544 15.0255C73.4493 15.0255 73.5062 15.0729 73.5252 15.1677C73.64 15.9113 73.8355 16.6017 74.1117 17.2391C74.3869 17.8773 74.7447 18.4283 75.1841 18.895C75.6216 19.3625 76.136 19.7286 76.7272 19.9951C77.3175 20.2616 78.0037 20.3953 78.7847 20.3953C80.1181 20.3953 81.1905 20.0236 82.0009 19.281C82.8105 18.5384 83.2147 17.3481 83.2147 15.7102C83.2147 13.8817 82.5049 12.4164 81.0861 11.3116C79.6663 10.2076 77.4124 9.46503 74.3262 9.08377L76.8411 0.800449H82.3578C82.7573 0.800449 83.0771 0.757771 83.3153 0.671467C83.5536 0.586111 83.7434 0.496014 83.8876 0.400225C84.03 0.305385 84.1391 0.215286 84.215 0.128982C84.2919 0.0426777 84.3583 0 84.4162 0C84.5301 0 84.587 0.0673368 84.587 0.200113L83.844 2.71432H76.8696L75.4413 7.57012C78.6613 7.9125 81.0804 8.69303 82.7004 9.91172C84.3204 11.1314 85.1308 12.7398 85.1308 14.74C85.1308 15.7292 84.9628 16.6103 84.6297 17.3813C84.2966 18.1533 83.8345 18.8001 83.2442 19.3246C82.6529 19.8481 81.9525 20.2426 81.143 20.5091C80.3326 20.7756 79.4614 20.9094 78.5275 20.9094C77.9173 20.9094 77.3602 20.8562 76.8553 20.7519C76.3505 20.6467 75.8883 20.5234 75.4688 20.3811C75.0503 20.2379 74.683 20.0805 74.3689 19.9097C74.0538 19.7381 73.7928 19.5958 73.5831 19.4811C73.3155 19.3284 73.1826 19.1093 73.1826 18.8238V15.1677Z" fill="#7C7262"/>
    <path fill-rule="evenodd" clip-rule="evenodd" d="M90.4754 20.6107L98.0788 2.72398H89.7581C89.3561 2.72398 89.0351 2.76585 88.797 2.85246C88.5579 2.93812 88.3664 3.0295 88.2235 3.12467C88.0797 3.21985 87.9701 3.31122 87.8939 3.39688C87.8168 3.48254 87.7501 3.52632 87.6929 3.52632C87.5777 3.52632 87.5205 3.45874 87.5205 3.3255L88.2664 0.802345H97.5044C97.9064 0.802345 98.2265 0.759514 98.4656 0.672903C98.7047 0.587243 98.8961 0.497777 99.039 0.400696C99.1829 0.305519 99.2924 0.215101 99.3686 0.12849C99.4448 0.04283 99.5124 0 99.5696 0C99.6277 0 99.6801 0.024745 99.7277 0.0713819C99.7754 0.119922 99.7801 0.200824 99.742 0.315036C98.0588 4.11832 96.71 7.31438 95.6964 9.90415C94.6829 12.4939 93.9085 14.5821 93.3731 16.1668C92.7416 18.0409 92.2834 19.5209 91.9957 20.6107H90.4754Z" fill="#7C7262"/>
</svg>
